# xmcd CD database file
#
# Track frame offsets:
#	150
#	25160
#	43337
#	66148
#	82347
#	114729
#	136293
#	161402
#	183578
#	203351
#	220916
#	238293
#	255036
#
# Disc length: 3754 seconds
#
# Revision: 0
# Processed by: cddbd v1.5.2PL0 Copyright (c) Steve Scherf et al.
# Submitted via: CDex 1.51
#
DISCID=b70ea80d
DTITLE=Jimmy Lewis - Never Met A Woman I Didn't Like
DYEAR=1999
DGENRE=Blues
TTITLE0=Don't Get Mad, Get Even
TTITLE1=No Chicken Wings
TTITLE2=I Was Wrong
TTITLE3=You Can't Throw a Pork Chop By a Hungry Wolf
TTITLE4=Reasons
TTITLE5=Where's the Stairs
TTITLE6=One Woman
TTITLE7=How Can I Get Your Love Back
TTITLE8=Friendly Neighbor
TTITLE9=Keeping You Up Is My Down Fall
TTITLE10=Receiving Stolen Goods
TTITLE11=Gimme My Money Back
TTITLE12=Be Good to Old People
EXTD=YEAR: 1999
EXTT0=
EXTT1=
EXTT2=
EXTT3=
EXTT4=
EXTT5=
EXTT6=
EXTT7=
EXTT8=
EXTT9=
EXTT10=
EXTT11=
EXTT12=
PLAYORDER=
